Coordinates
version=1
nRows=43
nColumns=12
inDegrees=yes

Units are S.I. units (second, meters, Newtons, ...)
Angles are in degrees

endheader
time	SC_y	SC_z	SC_x	AC_y	AC_z	AC_x	GH_y	GH_z	GH_yy	EL_x	PS_y
       0.0              -38.34        -0.3042          7.791          64.07          7.927         -6.238         -135.2          70.57          12.13          58.72          103.1
   0.03121              -38.34        -0.3019          7.793          64.07          7.927          -6.24         -135.2          70.57          12.11          58.72          103.1
   0.06243              -38.34        -0.2996          7.796          64.07          7.927         -6.241         -135.2          70.58          12.09          58.72          103.1
   0.09364              -38.33         -0.297          7.799          64.07          7.926         -6.242         -135.2          70.58          12.06          58.72          103.1
    0.1249              -38.33        -0.2943          7.802          64.07          7.926         -6.244         -135.2          70.58          12.04          58.72          103.1
    0.1561              -38.32        -0.2915          7.806          64.06          7.926         -6.245         -135.2          70.58          12.01          58.72          103.1
    0.1873              -38.32        -0.2884          7.809          64.06          7.925         -6.247         -135.2          70.59          11.98          58.72          103.2
    0.2185              -38.32        -0.2851          7.813          64.06          7.925         -6.249         -135.2          70.59          11.95          58.72          103.2
    0.2497              -38.31        -0.2816          7.818          64.06          7.924         -6.251         -135.2          70.59          11.92          58.72          103.2
    0.2809              -38.31        -0.2779          7.822          64.06          7.924         -6.253         -135.2           70.6          11.88          58.73          103.2
    0.3121               -38.3        -0.2738          7.827          64.05          7.923         -6.255         -135.2           70.6          11.84          58.73          103.2
    0.3433              -38.29        -0.2695          7.832          64.05          7.922         -6.257         -135.3          70.61           11.8          58.73          103.2
    0.3746              -38.29        -0.2648          7.838          64.05          7.922          -6.26         -135.3          70.61          11.76          58.73          103.2
    0.4058              -38.28        -0.2597          7.844          64.04          7.921         -6.263         -135.3          70.62          11.71          58.73          103.3
     0.437              -38.27        -0.2543          7.851          64.04           7.92         -6.266         -135.3          70.62          11.65          58.73          103.3
    0.4682              -38.26        -0.2483          7.858          64.04          7.919         -6.269         -135.3          70.63           11.6          58.73          103.3
    0.4994              -38.26        -0.2419          7.865          64.03          7.918         -6.273         -135.3          70.63          11.54          58.73          103.3
    0.5306              -38.25        -0.2348          7.874          64.03          7.917         -6.276         -135.3          70.64          11.47          58.73          103.3
    0.5618              -38.23        -0.2272          7.883          64.02          7.916         -6.281         -135.3          70.65           11.4          58.74          103.4
    0.5931              -38.22        -0.2188          7.893          64.02          7.915         -6.285         -135.3          70.66          11.31          58.74          103.4
    0.6243              -38.21        -0.2095          7.904          64.01          7.913          -6.29         -135.3          70.67          11.23          58.74          103.4
    0.6555               -38.2        -0.1994          7.917           64.0          7.912         -6.296         -135.4          70.68          11.13          58.74          103.5
    0.6867              -38.18        -0.1881           7.93           64.0           7.91         -6.302         -135.4          70.69          11.02          58.74          103.5
    0.7179              -38.16        -0.1757          7.945          63.99          7.908         -6.309         -135.4           70.7           10.9          58.75          103.5
    0.7491              -38.14        -0.1619          7.962          63.98          7.906         -6.317         -135.4          70.71          10.77          58.75          103.6
    0.7803              -38.12        -0.1465           7.98          63.97          7.904         -6.325         -135.4          70.73          10.62          58.75          103.6
    0.8115               -38.1        -0.1292          8.001          63.96          7.901         -6.334         -135.5          70.75          10.46          58.75          103.7
    0.8428              -38.07        -0.1098          8.025          63.94          7.899         -6.345         -135.5          70.77          10.27          58.76          103.8
     0.874              -38.04        -0.0878          8.051          63.93          7.895         -6.357         -135.5          70.79          10.06          58.76          103.8
    0.9052              -38.01       -0.06286          8.081          63.91          7.892         -6.371         -135.6          70.81           9.82          58.77          103.9
    0.9364              -37.97       -0.03441          8.115          63.89          7.887         -6.387         -135.6          70.84          9.547          58.77          104.0
    0.9676              -37.92      -0.001747          8.155          63.87          7.883         -6.405         -135.7          70.87          9.234          58.78          104.1
    0.9988              -37.87        0.03596            8.2          63.85          7.877         -6.425         -135.7          70.91          8.872          58.79          104.3
      1.03              -37.81        0.07977          8.253          63.82           7.87         -6.449         -135.8          70.96          8.452          58.79          104.4
     1.061              -37.73          0.131          8.314          63.79          7.863         -6.477         -135.9          71.01           7.96           58.8          104.6
     1.092              -37.65         0.1915          8.387          63.75          7.854         -6.511         -136.0          71.07          7.381          58.82          104.8
     1.124              -37.55         0.2633          8.474           63.7          7.843          -6.55         -136.1          71.14          6.692          58.83          105.1
     1.155              -37.43         0.3494          8.577          63.64           7.83         -6.597         -136.2          71.23          5.867          58.85          105.3
     1.186              -37.28         0.4535          8.702          63.57          7.815         -6.655         -136.4          71.33          4.868          58.86          105.7
     1.217              -37.11         0.5808          8.856          63.49          7.796         -6.725         -136.6          71.46          3.648          58.89          106.1
     1.249              -36.89         0.7378          9.045          63.39          7.773         -6.811         -136.9          71.62          2.142          58.92          106.7
      1.28              -36.61         0.9336           9.28          63.26          7.744         -6.918         -137.2          71.81         0.2645          58.96          107.4
     1.311              -36.27           1.18          9.577          63.09          7.707         -7.054         -137.6          72.06         -2.101           59.0          108.2
